<svg xmlns:dc="http://purl.org/dc/elements/1.1/" xmlns:cc="http://creativecommons.org/ns#" xmlns:rdf="http://www.w3.org/1999/02/22-rdf-syntax-ns#" xmlns:svg="http://www.w3.org/2000/svg" xmlns="http://www.w3.org/2000/svg" xmlns:sodipodi="http://sodipodi.sourceforge.net/DTD/sodipodi-0.dtd" xmlns:inkscape="http://www.inkscape.org/namespaces/inkscape" version="1.1" x="0px" y="0px" viewBox="0 0 100 125"><g transform="translate(0,-952.36218)"><path style="text-indent:0;text-transform:none;direction:ltr;block-progression:tb;baseline-shift:baseline;color:#000000;enable-background:accumulate;" d="m 55.906198,978.33124 a 4.0004,4.0004 0 0 0 -3.75,2.90625 l -12,40.00001 a 4.0094668,4.0094668 0 1 0 7.6876,2.2812 l 12,-39.99997 a 4.0004,4.0004 0 0 0 -3.9376,-5.18749 z m -22.0937,3 a 4.0004,4.0004 0 0 0 -2.7187,1.31249 l -16,17 a 4.0004,4.0004 0 0 0 0,5.46877 l 16,17 a 4.0004,4.0004 0 1 0 5.8124,-5.4688 l -13.4374,-14.25 13.4374,-14.28117 a 4.0004,4.0004 0 0 0 -3.0937,-6.78129 z m 32.2813,0 a 4.0004,4.0004 0 0 0 -3,6.78129 l 13.4374,14.28117 -13.4374,14.25 a 4.0004,4.0004 0 1 0 5.8124,5.4688 l 16.000004,-17 a 4.0004,4.0004 0 0 0 0,-5.46877 l -16.000004,-17 a 4.0004,4.0004 0 0 0 -2.8124,-1.31249 z" fill="#000000" fill-opacity="1" stroke="none" marker="none" visibility="visible" display="inline" overflow="visible"/></g><text x="0" y="115" fill="#000000" font-size="5px" font-weight="bold" font-family="'Helvetica Neue', Helvetica, Arial-Unicode, Arial, Sans-serif">Created by Numero Uno</text><text x="0" y="120" fill="#000000" font-size="5px" font-weight="bold" font-family="'Helvetica Neue', Helvetica, Arial-Unicode, Arial, Sans-serif">from the Noun Project</text></svg>